<svg width="389" height="62" version="1.1" xmlns="http://www.w3.org/2000/svg" desc="Created with imagetracer.js version 1.2.6" ><path fill="rgb(0,0,0)" stroke="rgb(0,0,0)" stroke-width="1" opacity="1" d="M 6.5 4 L 70.5 4 L 71 4.5 L 71 23.5 L 70 23.5 L 70 5.5 L 69.5 5 L 6.5 5 L 6.5 4 Z " /><path fill="rgb(0,0,0)" stroke="rgb(0,0,0)" stroke-width="1" opacity="1" d="M 90.5 4 L 173.5 4 L 174 4.5 L 174 23.5 L 173 23.5 L 173 5.5 L 172.5 5 L 90.5 5 L 90.5 4 Z " /><path fill="rgb(0,0,0)" stroke="rgb(0,0,0)" stroke-width="1" opacity="1" d="M 190 4 L 223 4.5 L 191 5 L 190.5 24 L 190 15 L 187 15 L 187 13 L 190 13 L 190 4 Z " /><path fill="rgb(0,0,0)" stroke="rgb(0,0,0)" stroke-width="1" opacity="1" d="M 249.5 4 L 319.5 4 L 320 4.5 L 320 23.5 L 319 23.5 L 319 5.5 L 318.5 5 L 249.5 5 L 249.5 4 Z " /><path fill="rgb(0,0,0)" stroke="rgb(0,0,0)" stroke-width="1" opacity="1" d="M 336 4 L 385 4.5 L 337 5 L 336.5 24 L 336 15 L 333 15 L 333 13 L 336 13 L 336 4 Z " /><path fill="rgb(0,0,0)" stroke="rgb(0,0,0)" stroke-width="1" opacity="1" d="M 88 13 L 91 13 L 91 15 L 88 15 L 88 13 Z " /><path fill="rgb(0,0,0)" stroke="rgb(0,0,0)" stroke-width="1" opacity="1" d="M 246 13 L 250 14.5 L 246 15 L 246 13 Z " /><path fill="rgb(0,0,0)" stroke="rgb(0,0,0)" stroke-width="1" opacity="1" d="M 80.5 15 L 81 44.5 L 80 44.5 L 80.5 15 Z " /><path fill="rgb(0,0,0)" stroke="rgb(0,0,0)" stroke-width="1" opacity="1" d="M 146.5 25 L 148 28 L 146 28 L 146.5 25 Z " /><path fill="rgb(0,0,0)" stroke="rgb(0,0,0)" stroke-width="1" opacity="1" d="M 70.5 35 L 71 54.5 L 70 54.5 L 70.5 35 Z " /><path fill="rgb(0,0,0)" stroke="rgb(0,0,0)" stroke-width="1" opacity="1" d="M 178.5 35 L 179 54.5 L 178 54.5 L 178 45.5 L 177 44.5 L 178 43.5 L 178.5 35 Z " /><path fill="rgb(0,0,0)" stroke="rgb(0,0,0)" stroke-width="1" opacity="1" d="M 243.5 44 L 246 44.5 L 244.5 46 L 243.5 44 Z " /><path fill="rgb(0,0,127)" stroke="rgb(0,0,127)" stroke-width="1" opacity="1" d="M 210.5 11 L 211 15.5 L 210 15.5 L 210.5 11 Z " /><path fill="rgb(0,0,127)" stroke="rgb(0,0,127)" stroke-width="1" opacity="1" d="M 94.5 15 L 95.5 17 L 94.5 15 Z " /><path fill="rgb(0,127,127)" stroke="rgb(0,127,127)" stroke-width="1" opacity="1" d="M 50.5 12 L 49.5 14 L 50.5 12 Z " /><path fill="rgb(0,127,127)" stroke="rgb(0,127,127)" stroke-width="1" opacity="1" d="M 115.5 12 L 116.5 14 L 115.5 12 Z " /><path fill="rgb(0,127,127)" stroke="rgb(0,127,127)" stroke-width="1" opacity="1" d="M 119.5 12 L 118.5 14 L 119.5 12 Z " /><path fill="rgb(0,127,127)" stroke="rgb(0,127,127)" stroke-width="1" opacity="1" d="M 164.5 12 L 165.5 14 L 164.5 12 Z " /><path fill="rgb(0,127,127)" stroke="rgb(0,127,127)" stroke-width="1" opacity="1" d="M 26.5 13 L 27.5 15 L 26.5 13 Z " /><path fill="rgb(0,127,127)" stroke="rgb(0,127,127)" stroke-width="1" opacity="1" d="M 274.5 13 L 275 16.5 L 274 16.5 L 274.5 13 Z " /><path fill="rgb(0,127,127)" stroke="rgb(0,127,127)" stroke-width="1" opacity="1" d="M 358.5 13 L 360 16.5 L 358 15.5 L 358.5 13 Z " /><path fill="rgb(0,127,127)" stroke="rgb(0,127,127)" stroke-width="1" opacity="1" d="M 373.5 13 L 375 16.5 L 373 15.5 L 373.5 13 Z " /><path fill="rgb(0,127,127)" stroke="rgb(0,127,127)" stroke-width="1" opacity="1" d="M 134.5 14 L 135 16.5 L 134 16.5 L 134.5 14 Z " /><path fill="rgb(0,127,127)" stroke="rgb(0,127,127)" stroke-width="1" opacity="1" d="M 151.5 14 L 152 16.5 L 151 16.5 L 151.5 14 Z " /><path fill="rgb(0,127,127)" stroke="rgb(0,127,127)" stroke-width="1" opacity="1" d="M 299.5 14 L 300 16.5 L 299 16.5 L 299.5 14 Z " /><path fill="rgb(0,127,127)" stroke="rgb(0,127,127)" stroke-width="1" opacity="1" d="M 45.5 42 L 44.5 44 L 45.5 42 Z " /><path fill="rgb(0,127,127)" stroke="rgb(0,127,127)" stroke-width="1" opacity="1" d="M 199.5 42 L 198.5 44 L 199.5 42 Z " /><path fill="rgb(0,127,127)" stroke="rgb(0,127,127)" stroke-width="1" opacity="1" d="M 210.5 43 L 211 46.5 L 210 46.5 L 210.5 43 Z " /><path fill="rgb(0,127,127)" stroke="rgb(0,127,127)" stroke-width="1" opacity="1" d="M 216.5 43 L 217 46.5 L 216 46.5 L 216.5 43 Z " /><path fill="rgb(0,127,127)" stroke="rgb(0,127,127)" stroke-width="1" opacity="1" d="M 30.5 44 L 29.5 46 L 30.5 44 Z " /><path fill="rgb(0,127,127)" stroke="rgb(0,127,127)" stroke-width="1" opacity="1" d="M 224.5 44 L 225 46.5 L 224 46.5 L 224.5 44 Z " /><path fill="rgb(0,127,254)" stroke="rgb(0,127,254)" stroke-width="1" opacity="1" d="M 143.5 11 L 144 16.5 L 143 16.5 L 143.5 11 Z " /><path fill="rgb(0,127,254)" stroke="rgb(0,127,254)" stroke-width="1" opacity="1" d="M 38.5 13 L 39 16.5 L 38 16.5 L 38.5 13 Z " /><path fill="rgb(0,127,254)" stroke="rgb(0,127,254)" stroke-width="1" opacity="1" d="M 287.5 13 L 288 16.5 L 287 16.5 L 287.5 13 Z " /><path fill="rgb(0,127,254)" stroke="rgb(0,127,254)" stroke-width="1" opacity="1" d="M 192.5 41 L 193 46.5 L 192 46.5 L 192.5 41 Z " /><path fill="rgb(0,127,254)" stroke="rgb(0,127,254)" stroke-width="1" opacity="1" d="M 27.5 42 L 28 46.5 L 27 46.5 L 27.5 42 Z " /><path fill="rgb(127,0,0)" stroke="rgb(127,0,0)" stroke-width="1" opacity="1" d="M 345.5 15 L 346.5 17 L 345.5 15 Z " /><path fill="rgb(127,0,127)" stroke="rgb(127,0,127)" stroke-width="1" opacity="1" d="M 51.5 12 L 52.5 14 L 51.5 12 Z " /><path fill="rgb(127,0,127)" stroke="rgb(127,0,127)" stroke-width="1" opacity="1" d="M 146.5 12 L 145.5 14 L 146.5 12 Z " /><path fill="rgb(127,0,127)" stroke="rgb(127,0,127)" stroke-width="1" opacity="1" d="M 137.5 13 L 138 16.5 L 137 16.5 L 137.5 13 Z " /><path fill="rgb(127,0,127)" stroke="rgb(127,0,127)" stroke-width="1" opacity="1" d="M 154.5 13 L 155 16.5 L 154 16.5 L 154.5 13 Z " /><path fill="rgb(127,0,127)" stroke="rgb(127,0,127)" stroke-width="1" opacity="1" d="M 293.5 13 L 294 15.5 L 293 15.5 L 293.5 13 Z " /><path fill="rgb(127,0,127)" stroke="rgb(127,0,127)" stroke-width="1" opacity="1" d="M 305.5 13 L 306 16.5 L 305 16.5 L 305.5 13 Z " /><path fill="rgb(127,0,127)" stroke="rgb(127,0,127)" stroke-width="1" opacity="1" d="M 352.5 13 L 353 15.5 L 352 15.5 L 352.5 13 Z " /><path fill="rgb(127,0,127)" stroke="rgb(127,0,127)" stroke-width="1" opacity="1" d="M 367.5 13 L 368 15.5 L 367 15.5 L 367.5 13 Z " /><path fill="rgb(127,0,127)" stroke="rgb(127,0,127)" stroke-width="1" opacity="1" d="M 40.5 14 L 41 16.5 L 40 16.5 L 40.5 14 Z " /><path fill="rgb(127,0,127)" stroke="rgb(127,0,127)" stroke-width="1" opacity="1" d="M 109.5 14 L 110 16.5 L 109 16.5 L 109.5 14 Z " /><path fill="rgb(127,0,127)" stroke="rgb(127,0,127)" stroke-width="1" opacity="1" d="M 267.5 14 L 268 16.5 L 267 16.5 L 267.5 14 Z " /><path fill="rgb(127,0,127)" stroke="rgb(127,0,127)" stroke-width="1" opacity="1" d="M 276.5 14 L 277 16.5 L 276 16.5 L 276.5 14 Z " /><path fill="rgb(127,0,127)" stroke="rgb(127,0,127)" stroke-width="1" opacity="1" d="M 295.5 14 L 296 16.5 L 295 16.5 L 295.5 14 Z " /><path fill="rgb(127,0,127)" stroke="rgb(127,0,127)" stroke-width="1" opacity="1" d="M 302.5 14 L 303 16.5 L 302 16.5 L 302.5 14 Z " /><path fill="rgb(127,0,127)" stroke="rgb(127,0,127)" stroke-width="1" opacity="1" d="M 46.5 42 L 47.5 44 L 46.5 42 Z " /><path fill="rgb(127,0,127)" stroke="rgb(127,0,127)" stroke-width="1" opacity="1" d="M 200.5 42 L 201.5 44 L 200.5 42 Z " /><path fill="rgb(127,0,127)" stroke="rgb(127,0,127)" stroke-width="1" opacity="1" d="M 194.5 43 L 195 45.5 L 194 45.5 L 194.5 43 Z " /><path fill="rgb(127,0,127)" stroke="rgb(127,0,127)" stroke-width="1" opacity="1" d="M 227.5 43 L 228 46.5 L 227 46.5 L 227.5 43 Z " /><path fill="rgb(127,0,127)" stroke="rgb(127,0,127)" stroke-width="1" opacity="1" d="M 203.5 44 L 204 46.5 L 203 46.5 L 203.5 44 Z " /><path fill="rgb(127,127,0)" stroke="rgb(127,127,0)" stroke-width="1" opacity="1" d="M 23.5 11 L 25 13.5 L 23 12.5 L 23.5 11 Z " /><path fill="rgb(127,127,0)" stroke="rgb(127,127,0)" stroke-width="1" opacity="1" d="M 264.5 11 L 265 16.5 L 264 16.5 L 264.5 11 Z " /><path fill="rgb(127,127,0)" stroke="rgb(127,127,0)" stroke-width="1" opacity="1" d="M 113.5 12 L 112.5 14 L 113.5 12 Z " /><path fill="rgb(127,127,0)" stroke="rgb(127,127,0)" stroke-width="1" opacity="1" d="M 147.5 12 L 148.5 14 L 147.5 12 Z " /><path fill="rgb(127,127,0)" stroke="rgb(127,127,0)" stroke-width="1" opacity="1" d="M 157.5 12 L 156.5 14 L 157.5 12 Z " /><path fill="rgb(127,127,0)" stroke="rgb(127,127,0)" stroke-width="1" opacity="1" d="M 162.5 12 L 161.5 14 L 162.5 12 Z " /><path fill="rgb(127,127,0)" stroke="rgb(127,127,0)" stroke-width="1" opacity="1" d="M 278.5 12 L 280 13.5 L 280 16.5 L 279 16.5 L 278.5 12 Z " /><path fill="rgb(127,127,0)" stroke="rgb(127,127,0)" stroke-width="1" opacity="1" d="M 355.5 13 L 356 15.5 L 355 15.5 L 355.5 13 Z " /><path fill="rgb(127,127,0)" stroke="rgb(127,127,0)" stroke-width="1" opacity="1" d="M 370.5 13 L 371 15.5 L 370 15.5 L 370.5 13 Z " /><path fill="rgb(127,127,0)" stroke="rgb(127,127,0)" stroke-width="1" opacity="1" d="M 32.5 15 L 31.5 17 L 32.5 15 Z " /><path fill="rgb(127,127,0)" stroke="rgb(127,127,0)" stroke-width="1" opacity="1" d="M 103.5 15 L 102.5 17 L 103.5 15 Z " /><path fill="rgb(127,127,127)" stroke="rgb(127,127,127)" stroke-width="1" opacity="1" d="M 5.5 4 L 7 5.5 L 7 23 L 69.5 23 L 71 24.5 L 5 25 L 5.5 4 Z " /><path fill="rgb(127,127,127)" stroke="rgb(127,127,127)" stroke-width="1" opacity="1" d="M 223.5 4 L 224 13 L 244.5 13 L 245.5 12 L 247 15.5 L 245.5 16 L 244.5 15 L 224 15 L 224 24.5 L 223.5 25 L 190.5 25 L 191.5 23 L 222 23 L 222 5.5 L 223.5 4 Z " /><path fill="rgb(127,127,127)" stroke="rgb(127,127,127)" stroke-width="1" opacity="1" d="M 248.5 4 L 250 5.5 L 250 13.5 L 248 12.5 L 248.5 4 Z " /><path fill="rgb(127,127,127)" stroke="rgb(127,127,127)" stroke-width="1" opacity="1" d="M 90 5 L 92 5.5 L 92 22.5 L 92.5 23 L 172.5 23 L 173.5 25 L 148.5 25 L 147.5 26 L 146.5 25 L 90 24.5 L 92 23.5 L 90 23 L 91 13.5 L 90 12.5 L 90 5 Z " /><path fill="rgb(127,127,127)" stroke="rgb(127,127,127)" stroke-width="1" opacity="1" d="M 383 5 L 385 5.5 L 385 22.5 L 384.5 25 L 336 24.5 L 337.5 23 L 383 23 L 383 5 Z " /><path fill="rgb(127,127,127)" stroke="rgb(127,127,127)" stroke-width="1" opacity="1" d="M 24.5 10 L 27 10.5 L 24.5 11 L 24.5 10 Z " /><path fill="rgb(127,127,127)" stroke="rgb(127,127,127)" stroke-width="1" opacity="1" d="M 95.5 10 L 99 11.5 L 97.5 11 L 95.5 11 L 95.5 10 Z " /><path fill="rgb(127,127,127)" stroke="rgb(127,127,127)" stroke-width="1" opacity="1" d="M 199.5 10 L 202 10.5 L 199.5 11 L 199.5 10 Z " /><path fill="rgb(127,127,127)" stroke="rgb(127,127,127)" stroke-width="1" opacity="1" d="M 210.5 10 L 213 10.5 L 210.5 11 L 210.5 10 Z " /><path fill="rgb(127,127,127)" stroke="rgb(127,127,127)" stroke-width="1" opacity="1" d="M 262.5 10 L 267 10.5 L 262.5 11 L 262.5 10 Z " /><path fill="rgb(127,127,127)" stroke="rgb(127,127,127)" stroke-width="1" opacity="1" d="M 40.5 12 L 43 12.5 L 40.5 13 L 40.5 12 Z " /><path fill="rgb(127,127,127)" stroke="rgb(127,127,127)" stroke-width="1" opacity="1" d="M 87.5 12 L 89 15.5 L 87.5 16 L 86.5 15 L 71 15 L 71.5 13 L 86.5 13 L 87.5 12 Z " /><path fill="rgb(127,127,127)" stroke="rgb(127,127,127)" stroke-width="1" opacity="1" d="M 109.5 12 L 112 12.5 L 109.5 13 L 109.5 12 Z " /><path fill="rgb(127,127,127)" stroke="rgb(127,127,127)" stroke-width="1" opacity="1" d="M 267.5 12 L 270 12.5 L 267.5 13 L 267.5 12 Z " /><path fill="rgb(127,127,127)" stroke="rgb(127,127,127)" stroke-width="1" opacity="1" d="M 295.5 12 L 298 12.5 L 295.5 13 L 295.5 12 Z " /><path fill="rgb(127,127,127)" stroke="rgb(127,127,127)" stroke-width="1" opacity="1" d="M 174 13 L 186.5 13 L 187 14.5 L 187.5 16 L 186.5 15 L 174 15 L 174 13 Z " /><path fill="rgb(127,127,127)" stroke="rgb(127,127,127)" stroke-width="1" opacity="1" d="M 320 13 L 332.5 13 L 333 14.5 L 333.5 16 L 332.5 15 L 320 15 L 320 13 Z " /><path fill="rgb(127,127,127)" stroke="rgb(127,127,127)" stroke-width="1" opacity="1" d="M 50.5 14 L 53 14.5 L 50.5 15 L 50.5 14 Z " /><path fill="rgb(127,127,127)" stroke="rgb(127,127,127)" stroke-width="1" opacity="1" d="M 114.5 14 L 117 14.5 L 114.5 15 L 114.5 14 Z " /><path fill="rgb(127,127,127)" stroke="rgb(127,127,127)" stroke-width="1" opacity="1" d="M 146.5 14 L 149 14.5 L 146.5 15 L 146.5 14 Z " /><path fill="rgb(127,127,127)" stroke="rgb(127,127,127)" stroke-width="1" opacity="1" d="M 163.5 14 L 166 14.5 L 163.5 15 L 163.5 14 Z " /><path fill="rgb(127,127,127)" stroke="rgb(127,127,127)" stroke-width="1" opacity="1" d="M 248 15 L 250 15 L 250 22.5 L 250.5 23 L 318.5 23 L 319.5 25 L 293 25 L 293 44.5 L 291.5 46 L 245.5 46 L 246.5 44 L 291 44 L 291 25 L 249.5 25 L 248 23.5 L 248 15 Z " /><path fill="rgb(127,127,127)" stroke="rgb(127,127,127)" stroke-width="1" opacity="1" d="M 145.5 27 L 148 28 L 148 44 L 176.5 44 L 177.5 46 L 147.5 46 L 146 44.5 L 146 28.5 L 145.5 27 Z " /><path fill="rgb(127,127,127)" stroke="rgb(127,127,127)" stroke-width="1" opacity="1" d="M 5 34 L 71 34.5 L 69.5 36 L 7 36 L 7 53.5 L 7.5 54 L 69.5 54 L 70.5 56 L 6.5 56 L 5 54.5 L 5 34 Z " /><path fill="rgb(127,127,127)" stroke="rgb(127,127,127)" stroke-width="1" opacity="1" d="M 178.5 34 L 241.5 34 L 243 35.5 L 243 44.5 L 244 45.5 L 243 46.5 L 243 54.5 L 241.5 56 L 178 55.5 L 179.5 54 L 241 54 L 241 36.5 L 240.5 36 L 179.5 36 L 178.5 34 Z " /><path fill="rgb(127,127,127)" stroke="rgb(127,127,127)" stroke-width="1" opacity="1" d="M 25.5 40 L 30 40.5 L 25.5 41 L 25.5 40 Z " /><path fill="rgb(127,127,127)" stroke="rgb(127,127,127)" stroke-width="1" opacity="1" d="M 203.5 42 L 206 42.5 L 203.5 43 L 203.5 42 Z " /><path fill="rgb(127,127,127)" stroke="rgb(127,127,127)" stroke-width="1" opacity="1" d="M 45.5 44 L 48 44.5 L 45.5 45 L 45.5 44 Z " /><path fill="rgb(127,127,127)" stroke="rgb(127,127,127)" stroke-width="1" opacity="1" d="M 71 44 L 79.5 44 L 81 45.5 L 71 46 L 71 44 Z " /><path fill="rgb(127,127,127)" stroke="rgb(127,127,127)" stroke-width="1" opacity="1" d="M 199.5 44 L 202 44.5 L 199.5 45 L 199.5 44 Z " /><path fill="rgb(127,127,254)" stroke="rgb(127,127,254)" stroke-width="1" opacity="1" d="M 349.5 10 L 350.5 12 L 349.5 10 Z " /><path fill="rgb(127,127,254)" stroke="rgb(127,127,254)" stroke-width="1" opacity="1" d="M 35.5 13 L 36 15.5 L 35 15.5 L 35.5 13 Z " /><path fill="rgb(127,127,254)" stroke="rgb(127,127,254)" stroke-width="1" opacity="1" d="M 106.5 14 L 107 16.5 L 106 16.5 L 106.5 14 Z " /><path fill="rgb(127,127,254)" stroke="rgb(127,127,254)" stroke-width="1" opacity="1" d="M 280.5 14 L 281 16.5 L 280 16.5 L 280.5 14 Z " /><path fill="rgb(127,127,254)" stroke="rgb(127,127,254)" stroke-width="1" opacity="1" d="M 50.5 43 L 51 45.5 L 50 45.5 L 50.5 43 Z " /><path fill="rgb(127,127,254)" stroke="rgb(127,127,254)" stroke-width="1" opacity="1" d="M 213.5 43 L 214 45.5 L 213 45.5 L 213.5 43 Z " /><path fill="rgb(127,127,254)" stroke="rgb(127,127,254)" stroke-width="1" opacity="1" d="M 35.5 44 L 36 46.5 L 35 46.5 L 35.5 44 Z " /><path fill="rgb(127,254,254)" stroke="rgb(127,254,254)" stroke-width="1" opacity="1" d="M 265.5 12 L 266 16.5 L 265 16.5 L 265.5 12 Z " /><path fill="rgb(127,254,254)" stroke="rgb(127,254,254)" stroke-width="1" opacity="1" d="M 356.5 12 L 357 16.5 L 356 16.5 L 356.5 12 Z " /><path fill="rgb(127,254,254)" stroke="rgb(127,254,254)" stroke-width="1" opacity="1" d="M 371.5 12 L 372 16.5 L 371 16.5 L 371.5 12 Z " /><path fill="rgb(127,254,254)" stroke="rgb(127,254,254)" stroke-width="1" opacity="1" d="M 41.5 13 L 42 16.5 L 41 16.5 L 41.5 13 Z " /><path fill="rgb(127,254,254)" stroke="rgb(127,254,254)" stroke-width="1" opacity="1" d="M 110.5 13 L 111 16.5 L 110 16.5 L 110.5 13 Z " /><path fill="rgb(127,254,254)" stroke="rgb(127,254,254)" stroke-width="1" opacity="1" d="M 127.5 13 L 128 15.5 L 127 15.5 L 127.5 13 Z " /><path fill="rgb(127,254,254)" stroke="rgb(127,254,254)" stroke-width="1" opacity="1" d="M 268.5 13 L 269 16.5 L 268 16.5 L 268.5 13 Z " /><path fill="rgb(127,254,254)" stroke="rgb(127,254,254)" stroke-width="1" opacity="1" d="M 277.5 13 L 278 16.5 L 277 16.5 L 277.5 13 Z " /><path fill="rgb(127,254,254)" stroke="rgb(127,254,254)" stroke-width="1" opacity="1" d="M 296.5 13 L 297 16.5 L 296 16.5 L 296.5 13 Z " /><path fill="rgb(127,254,254)" stroke="rgb(127,254,254)" stroke-width="1" opacity="1" d="M 306.5 13 L 307 16.5 L 306 16.5 L 306.5 13 Z " /><path fill="rgb(127,254,254)" stroke="rgb(127,254,254)" stroke-width="1" opacity="1" d="M 353.5 13 L 354 15.5 L 353 15.5 L 353.5 13 Z " /><path fill="rgb(127,254,254)" stroke="rgb(127,254,254)" stroke-width="1" opacity="1" d="M 368.5 13 L 369 15.5 L 368 15.5 L 368.5 13 Z " /><path fill="rgb(127,254,254)" stroke="rgb(127,254,254)" stroke-width="1" opacity="1" d="M 138.5 14 L 139 16.5 L 138 16.5 L 138.5 14 Z " /><path fill="rgb(127,254,254)" stroke="rgb(127,254,254)" stroke-width="1" opacity="1" d="M 155.5 14 L 156 16.5 L 155 16.5 L 155.5 14 Z " /><path fill="rgb(127,254,254)" stroke="rgb(127,254,254)" stroke-width="1" opacity="1" d="M 215.5 15 L 214.5 17 L 215.5 15 Z " /><path fill="rgb(127,254,254)" stroke="rgb(127,254,254)" stroke-width="1" opacity="1" d="M 42.5 42 L 43 47.5 L 42 47.5 L 42.5 42 Z " /><path fill="rgb(127,254,254)" stroke="rgb(127,254,254)" stroke-width="1" opacity="1" d="M 33.5 43 L 34 46.5 L 33 46.5 L 33.5 43 Z " /><path fill="rgb(127,254,254)" stroke="rgb(127,254,254)" stroke-width="1" opacity="1" d="M 195.5 43 L 196 45.5 L 195 45.5 L 195.5 43 Z " /><path fill="rgb(127,254,254)" stroke="rgb(127,254,254)" stroke-width="1" opacity="1" d="M 204.5 43 L 205 46.5 L 204 46.5 L 204.5 43 Z " /><path fill="rgb(127,254,254)" stroke="rgb(127,254,254)" stroke-width="1" opacity="1" d="M 228.5 44 L 229 46.5 L 228 46.5 L 228.5 44 Z " /><path fill="rgb(254,127,0)" stroke="rgb(254,127,0)" stroke-width="1" opacity="1" d="M 105.5 13 L 106 16.5 L 105 16.5 L 105.5 13 Z " /><path fill="rgb(254,127,0)" stroke="rgb(254,127,0)" stroke-width="1" opacity="1" d="M 361.5 13 L 362 17.5 L 361 17.5 L 361.5 13 Z " /><path fill="rgb(254,127,0)" stroke="rgb(254,127,0)" stroke-width="1" opacity="1" d="M 191.5 41 L 192 46.5 L 191 46.5 L 191.5 41 Z " /><path fill="rgb(254,127,0)" stroke="rgb(254,127,0)" stroke-width="1" opacity="1" d="M 34.5 43 L 35 46.5 L 34 46.5 L 34.5 43 Z " /><path fill="rgb(254,127,0)" stroke="rgb(254,127,0)" stroke-width="1" opacity="1" d="M 49.5 43 L 50 45.5 L 49 45.5 L 49.5 43 Z " /><path fill="rgb(254,127,0)" stroke="rgb(254,127,0)" stroke-width="1" opacity="1" d="M 212.5 43 L 213 45.5 L 212 45.5 L 212.5 43 Z " /><path fill="rgb(254,127,127)" stroke="rgb(254,127,127)" stroke-width="1" opacity="1" d="M 37.5 12 L 38 15.5 L 37 15.5 L 37.5 12 Z " /><path fill="rgb(254,127,127)" stroke="rgb(254,127,127)" stroke-width="1" opacity="1" d="M 286.5 13 L 287 16.5 L 286 16.5 L 286.5 13 Z " /><path fill="rgb(254,127,127)" stroke="rgb(254,127,127)" stroke-width="1" opacity="1" d="M 26.5 41 L 27 46.5 L 26 46.5 L 26.5 41 Z " /><path fill="rgb(254,254,127)" stroke="rgb(254,254,127)" stroke-width="1" opacity="1" d="M 198.5 10 L 198 11.5 L 197.5 13 L 197 11.5 L 198.5 10 Z " /><path fill="rgb(254,254,127)" stroke="rgb(254,254,127)" stroke-width="1" opacity="1" d="M 209.5 10 L 210 16.5 L 209 16.5 L 209.5 10 Z " /><path fill="rgb(254,254,127)" stroke="rgb(254,254,127)" stroke-width="1" opacity="1" d="M 122.5 12 L 123 18.5 L 122 18.5 L 122.5 12 Z " /><path fill="rgb(254,254,127)" stroke="rgb(254,254,127)" stroke-width="1" opacity="1" d="M 133.5 12 L 134 16.5 L 133 16.5 L 133.5 12 Z " /><path fill="rgb(254,254,127)" stroke="rgb(254,254,127)" stroke-width="1" opacity="1" d="M 150.5 12 L 151 16.5 L 150 16.5 L 150.5 12 Z " /><path fill="rgb(254,254,127)" stroke="rgb(254,254,127)" stroke-width="1" opacity="1" d="M 344.5 12 L 345 14.5 L 344 14.5 L 344.5 12 Z " /><path fill="rgb(254,254,127)" stroke="rgb(254,254,127)" stroke-width="1" opacity="1" d="M 28.5 13 L 29 15.5 L 28 15.5 L 28.5 13 Z " /><path fill="rgb(254,254,127)" stroke="rgb(254,254,127)" stroke-width="1" opacity="1" d="M 99.5 13 L 100 15.5 L 99 15.5 L 99.5 13 Z " /><path fill="rgb(254,254,127)" stroke="rgb(254,254,127)" stroke-width="1" opacity="1" d="M 136.5 13 L 137 16.5 L 136 16.5 L 136.5 13 Z " /><path fill="rgb(254,254,127)" stroke="rgb(254,254,127)" stroke-width="1" opacity="1" d="M 144.5 13 L 145 15.5 L 144 15.5 L 144.5 13 Z " /><path fill="rgb(254,254,127)" stroke="rgb(254,254,127)" stroke-width="1" opacity="1" d="M 153.5 13 L 154 16.5 L 153 16.5 L 153.5 13 Z " /><path fill="rgb(254,254,127)" stroke="rgb(254,254,127)" stroke-width="1" opacity="1" d="M 298.5 13 L 299 16.5 L 298 16.5 L 298.5 13 Z " /><path fill="rgb(254,254,127)" stroke="rgb(254,254,127)" stroke-width="1" opacity="1" d="M 301.5 13 L 302 16.5 L 301 16.5 L 301.5 13 Z " /><path fill="rgb(254,254,127)" stroke="rgb(254,254,127)" stroke-width="1" opacity="1" d="M 357.5 13 L 358 16.5 L 357 16.5 L 357.5 13 Z " /><path fill="rgb(254,254,127)" stroke="rgb(254,254,127)" stroke-width="1" opacity="1" d="M 364.5 13 L 365 15.5 L 364 15.5 L 364.5 13 Z " /><path fill="rgb(254,254,127)" stroke="rgb(254,254,127)" stroke-width="1" opacity="1" d="M 372.5 13 L 373 16.5 L 372 16.5 L 372.5 13 Z " /><path fill="rgb(254,254,127)" stroke="rgb(254,254,127)" stroke-width="1" opacity="1" d="M 215.5 42 L 216 46.5 L 215 46.5 L 215.5 42 Z " /><path fill="rgb(254,254,127)" stroke="rgb(254,254,127)" stroke-width="1" opacity="1" d="M 223.5 42 L 224 46.5 L 223 46.5 L 223.5 42 Z " /><path fill="rgb(254,254,127)" stroke="rgb(254,254,127)" stroke-width="1" opacity="1" d="M 37.5 43 L 38 45.5 L 37 45.5 L 37.5 43 Z " /><path fill="rgb(254,254,127)" stroke="rgb(254,254,127)" stroke-width="1" opacity="1" d="M 226.5 43 L 227 46.5 L 226 46.5 L 226.5 43 Z " /><path fill="rgb(254,254,254)" stroke="rgb(254,254,254)" stroke-width="1" opacity="1" d="M 0 0 L 388.5 0 L 389 0.5 L 389 62 L 0.5 62 L 0 61.5 L 0 0 Z M 5 4 L 5 25 L 71 25 L 71 25 L 71 15 L 80 15 L 80 16 L 80 44 L 71 44 L 71 35 L 71 34 L 5 34 L 5 55 L 7 56 L 71 56 L 71 46 L 81 46 L 81 46 L 81 18 L 82 15 L 89 16 L 90 16 L 90 25 L 91 25 L 146 25 L 145 28 L 146 29 L 146 45 L 148 46 L 178 46 L 178 47 L 178 56 L 179 56 L 242 56 L 243 55 L 243 46 L 292 46 L 293 45 L 293 25 L 320 25 L 320 25 L 320 15 L 333 15 L 335 15 L 336 16 L 336 25 L 385 25 L 385 4 L 337 4 L 336 5 L 336 13 L 320 13 L 320 4 L 249 4 L 248 5 L 248 13 L 247 13 L 245 13 L 224 13 L 224 4 L 191 4 L 190 5 L 190 13 L 174 13 L 174 4 L 91 4 L 90 5 L 90 13 L 89 13 L 87 13 L 71 13 L 71 5 L 71 4 L 5 4 Z " /><path fill="rgb(254,254,254)" stroke="rgb(254,254,254)" stroke-width="1" opacity="1" d="M 7 5 L 69.5 5 L 70 5.5 L 70 23 L 7.5 23 L 7 22.5 L 7 5 Z M 25 10 L 23 12 L 23 14 L 26 14 L 26 16 L 24 16 L 24 17 L 29 16 L 33 17 L 35 17 L 39 17 L 39 12 L 37 12 L 37 16 L 36 16 L 36 12 L 35 12 L 33 12 L 29 13 L 25 13 L 25 11 L 28 11 L 25 10 Z M 40 12 L 40 17 L 42 17 L 43 13 L 43 16 L 45 17 L 48 17 L 48 16 L 45 16 L 45 13 L 48 13 L 40 12 Z M 50 12 L 48 14 L 50 17 L 53 17 L 51 16 L 51 15 L 54 15 L 54 14 L 53 12 L 50 12 Z " /><path fill="rgb(254,254,254)" stroke="rgb(254,254,254)" stroke-width="1" opacity="1" d="M 92 5 L 172.5 5 L 173 5.5 L 173 23 L 92.5 23 L 92 22.5 L 92 5 Z M 96 10 L 93 13 L 93 16 L 95 17 L 99 17 L 95 15 L 97 11 L 99 12 L 99 10 L 96 10 Z M 142 10 L 142 12 L 139 12 L 139 14 L 138 12 L 129 12 L 128 13 L 127 12 L 119 12 L 117 12 L 106 12 L 105 13 L 101 12 L 99 16 L 101 17 L 104 17 L 106 17 L 107 17 L 107 13 L 109 13 L 109 17 L 111 17 L 111 14 L 112 14 L 112 17 L 122 17 L 122 19 L 124 19 L 124 17 L 128 16 L 129 17 L 135 17 L 136 13 L 136 17 L 144 17 L 145 16 L 146 17 L 152 17 L 153 13 L 153 17 L 171 17 L 171 16 L 168 14 L 170 13 L 156 12 L 156 14 L 155 12 L 150 13 L 146 12 L 144 13 L 144 10 L 142 10 Z " /><path fill="rgb(254,254,254)" stroke="rgb(254,254,254)" stroke-width="1" opacity="1" d="M 191 5 L 222 5 L 222 23 L 191 23 L 191 5 Z M 199 10 L 197 13 L 201 14 L 201 16 L 198 16 L 198 17 L 203 17 L 203 15 L 200 13 L 200 11 L 203 11 L 204 16 L 207 17 L 208 15 L 209 15 L 209 17 L 215 17 L 216 16 L 216 13 L 214 10 L 209 10 L 207 13 L 205 13 L 205 10 L 199 10 Z " /><path fill="rgb(254,254,254)" stroke="rgb(254,254,254)" stroke-width="1" opacity="1" d="M 250 5 L 318.5 5 L 319 5.5 L 319 23 L 250.5 23 L 250 22.5 L 250 5 Z M 263 10 L 263 11 L 264 12 L 264 17 L 266 17 L 266 11 L 268 11 L 263 10 Z M 286 10 L 286 12 L 281 13 L 276 12 L 276 17 L 278 17 L 279 13 L 279 17 L 288 17 L 288 14 L 289 11 L 286 10 Z M 267 12 L 267 17 L 269 17 L 269 13 L 273 14 L 270 14 L 270 17 L 275 17 L 275 12 L 267 12 Z M 291 12 L 289 16 L 291 17 L 294 17 L 295 15 L 295 17 L 297 17 L 297 14 L 298 14 L 298 17 L 300 17 L 301 13 L 301 17 L 303 17 L 303 14 L 305 14 L 305 17 L 307 17 L 307 14 L 306 12 L 296 12 L 295 14 L 294 14 L 294 12 L 291 12 Z " /><path fill="rgb(254,254,254)" stroke="rgb(254,254,254)" stroke-width="1" opacity="1" d="M 337 5 L 383 5 L 383 23 L 337 23 L 337 5 Z M 347 10 L 344 13 L 345 16 L 345 17 L 350 17 L 352 16 L 353 17 L 361 17 L 361 19 L 363 19 L 363 17 L 366 17 L 366 16 L 367 16 L 368 17 L 376 17 L 376 16 L 374 16 L 374 13 L 376 13 L 374 12 L 374 10 L 370 12 L 370 16 L 369 14 L 368 12 L 367 13 L 366 12 L 359 12 L 359 10 L 355 12 L 355 16 L 354 14 L 353 12 L 352 13 L 351 12 L 350 10 L 347 10 Z " /><path fill="rgb(254,254,254)" stroke="rgb(254,254,254)" stroke-width="1" opacity="1" d="M 347.5 11 L 349 12.5 L 349 16 L 346 14.5 L 347.5 11 Z " /><path fill="rgb(254,254,254)" stroke="rgb(254,254,254)" stroke-width="1" opacity="1" d="M 211 12 L 214 12 L 214 14.5 L 211 16 L 211 12 Z " /><path fill="rgb(254,254,254)" stroke="rgb(254,254,254)" stroke-width="1" opacity="1" d="M 31.5 13 L 32 16 L 30 16 L 30 14.5 L 31.5 13 Z " /><path fill="rgb(254,254,254)" stroke="rgb(254,254,254)" stroke-width="1" opacity="1" d="M 102.5 13 L 103 16 L 101 16 L 101 14.5 L 102.5 13 Z " /><path fill="rgb(254,254,254)" stroke="rgb(254,254,254)" stroke-width="1" opacity="1" d="M 119.5 13 L 122 13.5 L 119.5 14 L 119.5 13 Z " /><path fill="rgb(254,254,254)" stroke="rgb(254,254,254)" stroke-width="1" opacity="1" d="M 124 13 L 126 13 L 126 16 L 124 16 L 124 13 Z " /><path fill="rgb(254,254,254)" stroke="rgb(254,254,254)" stroke-width="1" opacity="1" d="M 130.5 13 L 131 15.5 L 130 15.5 L 130.5 13 Z " /><path fill="rgb(254,254,254)" stroke="rgb(254,254,254)" stroke-width="1" opacity="1" d="M 141.5 13 L 142 15.5 L 141 15.5 L 141.5 13 Z " /><path fill="rgb(254,254,254)" stroke="rgb(254,254,254)" stroke-width="1" opacity="1" d="M 158 13 L 161 13 L 161 16 L 158 16 L 158 13 Z " /><path fill="rgb(254,254,254)" stroke="rgb(254,254,254)" stroke-width="1" opacity="1" d="M 283.5 13 L 286 13 L 286 14.5 L 284.5 14 L 283.5 13 Z " /><path fill="rgb(254,254,254)" stroke="rgb(254,254,254)" stroke-width="1" opacity="1" d="M 291.5 13 L 293 14.5 L 291.5 16 L 291.5 13 Z " /><path fill="rgb(254,254,254)" stroke="rgb(254,254,254)" stroke-width="1" opacity="1" d="M 359 13 L 361 13 L 361 16 L 359 16 L 359 13 Z " /><path fill="rgb(254,254,254)" stroke="rgb(254,254,254)" stroke-width="1" opacity="1" d="M 363.5 13 L 364 15.5 L 363 15.5 L 363.5 13 Z " /><path fill="rgb(254,254,254)" stroke="rgb(254,254,254)" stroke-width="1" opacity="1" d="M 117.5 14 L 120 15.5 L 114.5 16 L 114.5 15 L 117.5 14 Z " /><path fill="rgb(254,254,254)" stroke="rgb(254,254,254)" stroke-width="1" opacity="1" d="M 146.5 15 L 150 15.5 L 146.5 16 L 146.5 15 Z " /><path fill="rgb(254,254,254)" stroke="rgb(254,254,254)" stroke-width="1" opacity="1" d="M 163.5 15 L 169 15.5 L 163.5 16 L 163.5 15 Z " /><path fill="rgb(254,254,254)" stroke="rgb(254,254,254)" stroke-width="1" opacity="1" d="M 174 15 L 186.5 15 L 187.5 16 L 190 15 L 190 24.5 L 190.5 25 L 224 25 L 224 15 L 244.5 15 L 246.5 16 L 248 15.5 L 248 23.5 L 249.5 25 L 291 25 L 291 44 L 243.5 44 L 243 43.5 L 243 35.5 L 241.5 34 L 178 34 L 178 44 L 148 44 L 148 25 L 174 25 L 174 15 Z " /><path fill="rgb(254,254,254)" stroke="rgb(254,254,254)" stroke-width="1" opacity="1" d="M 281.5 15 L 284 15.5 L 281.5 16 L 281.5 15 Z " /><path fill="rgb(254,254,254)" stroke="rgb(254,254,254)" stroke-width="1" opacity="1" d="M 7 36 L 69.5 36 L 70 36.5 L 70 54 L 7.5 54 L 7 53.5 L 7 36 Z M 25 40 L 25 41 L 26 42 L 26 47 L 29 46 L 30 47 L 36 47 L 37 43 L 37 46 L 40 48 L 38 49 L 42 49 L 43 47 L 45 47 L 48 47 L 46 46 L 46 45 L 49 45 L 49 47 L 52 47 L 51 44 L 52 43 L 50 40 L 49 42 L 44 43 L 43 42 L 35 42 L 33 42 L 29 43 L 31 44 L 29 45 L 28 41 L 30 41 L 25 40 Z " /><path fill="rgb(254,254,254)" stroke="rgb(254,254,254)" stroke-width="1" opacity="1" d="M 179 36 L 240.5 36 L 241 36.5 L 241 54 L 179.5 54 L 179 53.5 L 179 36 Z M 191 40 L 191 47 L 193 47 L 194 43 L 194 47 L 197 47 L 196 44 L 197 43 L 195 40 L 194 42 L 193 42 L 193 40 L 191 40 Z M 213 40 L 212 42 L 204 42 L 202 42 L 199 42 L 197 44 L 199 47 L 202 47 L 200 46 L 200 45 L 203 45 L 203 47 L 205 47 L 205 43 L 209 44 L 206 44 L 206 47 L 211 47 L 212 43 L 212 47 L 217 47 L 217 42 L 215 42 L 213 40 Z M 218 42 L 218 47 L 225 47 L 225 44 L 226 44 L 226 47 L 229 47 L 228 44 L 228 42 L 218 42 Z " /><path fill="rgb(254,254,254)" stroke="rgb(254,254,254)" stroke-width="1" opacity="1" d="M 39 43 L 41 43 L 41 46 L 39 46 L 39 43 Z " /><path fill="rgb(254,254,254)" stroke="rgb(254,254,254)" stroke-width="1" opacity="1" d="M 214.5 43 L 215 45.5 L 214 45.5 L 214.5 43 Z " /><path fill="rgb(254,254,254)" stroke="rgb(254,254,254)" stroke-width="1" opacity="1" d="M 220.5 43 L 221 45.5 L 220 45.5 L 220.5 43 Z " /></svg>